<svg width="2114" height="1001" xmlns="http://www.w3.org/2000/svg" xmlns:xlink="http://www.w3.org/1999/xlink" overflow="hidden"><defs><clipPath id="clip0"><rect x="836" y="627" width="2114" height="1001"/></clipPath><clipPath id="clip1"><rect x="1065" y="667" width="1814" height="791"/></clipPath><clipPath id="clip2"><rect x="1065" y="667" width="1814" height="791"/></clipPath><clipPath id="clip3"><rect x="836" y="626" width="2113" height="1001"/></clipPath><clipPath id="clip4"><rect x="836" y="626" width="2113" height="1001"/></clipPath><clipPath id="clip5"><rect x="836" y="626" width="2113" height="1001"/></clipPath><clipPath id="clip6"><rect x="836" y="626" width="2113" height="1001"/></clipPath><clipPath id="clip7"><rect x="836" y="626" width="2113" height="1001"/></clipPath><clipPath id="clip8"><rect x="836" y="626" width="2113" height="1001"/></clipPath><clipPath id="clip9"><rect x="836" y="626" width="2113" height="1001"/></clipPath><clipPath id="clip10"><rect x="836" y="626" width="2113" height="1001"/></clipPath><clipPath id="clip11"><rect x="836" y="626" width="2113" height="1001"/></clipPath><clipPath id="clip12"><rect x="836" y="626" width="2113" height="1001"/></clipPath><clipPath id="clip13"><rect x="836" y="626" width="2113" height="1001"/></clipPath><clipPath id="clip14"><rect x="836" y="626" width="2113" height="1001"/></clipPath></defs><g clip-path="url(#clip0)" transform="translate(-836 -627)"><g clip-path="url(#clip1)"><path d="M1954.06 1337.04 1065 1337.04 1065 1179.04 1954.06 1179.04ZM1989.07 943.031 1065 943.031 1065 785.026 1989.07 785.026Z" fill="#4472C4"/></g><g clip-path="url(#clip2)"><path d="M2876.09 1337.04 1954.06 1337.04 1954.06 1179.04 2876.09 1179.04ZM2876.09 943.031 1989.07 943.031 1989.07 785.026 2876.09 785.026Z" fill="#EE6464"/></g><g clip-path="url(#clip3)"><text fill="#FFFFFF" font-family="Arial,Arial_MSFontService,sans-serif" font-weight="400" font-size="73" transform="matrix(1 0 0 1 1113.99 1285)">213</text></g><g clip-path="url(#clip4)"><text fill="#FFFFFF" font-family="Arial,Arial_MSFontService,sans-serif" font-weight="400" font-size="73" transform="matrix(1 0 0 1 1120.01 894)">51</text></g><g clip-path="url(#clip5)"><path d="M14.2578-53.5024C14.2578-54.5955 14.4657-55.6292 14.8816-56.6035 15.2974-57.5778 15.8678-58.4273 16.5925-59.1521 17.3173-59.8769 18.1609-60.4472 19.1233-60.863 20.0857-61.2789 21.1253-61.4868 22.2422-61.4868L77.9902-61.4868C79.0833-61.4868 80.117-61.2789 81.0913-60.863 82.0656-60.4472 82.9151-59.8769 83.6399-59.1521 84.3647-58.4273 84.935-57.5778 85.3508-56.6035 85.7667-55.6292 85.9746-54.5955 85.9746-53.5024L85.9746 2.24561C85.9746 3.36247 85.7667 4.4021 85.3508 5.3645 84.935 6.3269 84.3647 7.17049 83.6399 7.89526 82.9151 8.62004 82.0656 9.19035 81.0913 9.6062 80.117 10.0221 79.0833 10.23 77.9902 10.23L22.2422 10.23C21.1253 10.23 20.0857 10.0221 19.1233 9.6062 18.1609 9.19035 17.3173 8.62004 16.5925 7.89526 15.8678 7.17049 15.2974 6.3269 14.8816 5.3645 14.4657 4.4021 14.2578 3.36247 14.2578 2.24561Z" fill="#636363" transform="translate(1221.97 894)"/><path d="M77.9902 7.66357 22.2422 7.66357C21.4818 7.66357 20.7748 7.52099 20.1213 7.23584 19.4679 6.95068 18.8975 6.56453 18.4104 6.07739 17.9233 5.59025 17.5371 5.01994 17.252 4.36645 16.9668 3.71297 16.8242 3.00602 16.8242 2.24561L16.8242-53.5024C16.8242-54.2391 16.9668-54.9401 17.252-55.6055 17.5371-56.2708 17.9233-56.8471 18.4104-57.3342 18.8975-57.8214 19.4679-58.2075 20.1213-58.4927 20.7748-58.7778 21.4818-58.9204 22.2422-58.9204L77.9902-58.9204C78.7269-58.9204 79.4279-58.7778 80.0933-58.4927 80.7586-58.2075 81.3349-57.8214 81.822-57.3342 82.3092-56.8471 82.6953-56.2708 82.9805-55.6055 83.2656-54.9401 83.4082-54.2391 83.4082-53.5024L83.4082 2.24561C83.4082 3.00602 83.2656 3.71297 82.9805 4.36645 82.6953 5.01994 82.3092 5.59025 81.822 6.07739 81.3349 6.56453 80.7586 6.95068 80.0933 7.23584 79.4279 7.52099 78.7269 7.66357 77.9902 7.66357Z" transform="translate(1221.97 894)"/><path d="M43.0586-7.69922C42.0368-7.69922 41.1338-8.06754 40.3496-8.8042L25.6284-23.2402C24.868-24.0006 24.4878-24.8918 24.4878-25.9136 24.4878-26.4364 24.5888-26.9294 24.7908-27.3928 24.9928-27.8562 25.272-28.2542 25.6284-28.5869 25.9849-28.9196 26.3948-29.1869 26.8582-29.3889 27.3215-29.5909 27.8146-29.6919 28.3374-29.6919 28.8364-29.6919 29.3236-29.5968 29.7988-29.4067 30.2741-29.2166 30.6899-28.9434 31.0464-28.5869L43.0586-16.7886 69.186-42.4526C69.5425-42.8091 69.9583-43.0824 70.4336-43.2725 70.9088-43.4626 71.396-43.5576 71.895-43.5576 72.4178-43.5576 72.9109-43.4566 73.3743-43.2546 73.8376-43.0526 74.2416-42.7853 74.5862-42.4526 74.9307-42.1199 75.204-41.7219 75.406-41.2585 75.608-40.7952 75.709-40.3021 75.709-39.7793 75.709-38.7575 75.3407-37.8783 74.604-37.1416L45.7676-8.8042C45.4111-8.44775 44.9953-8.17448 44.52-7.98437 44.0448-7.79427 43.5576-7.69922 43.0586-7.69922Z" fill="#F4F4F4" transform="translate(1221.97 894)"/></g><g clip-path="url(#clip6)"><path d="M14.2578-53.5024C14.2578-54.5955 14.4657-55.6292 14.8816-56.6035 15.2974-57.5778 15.8678-58.4273 16.5925-59.1521 17.3173-59.8769 18.1609-60.4472 19.1233-60.863 20.0857-61.2789 21.1253-61.4868 22.2422-61.4868L77.9902-61.4868C79.0833-61.4868 80.117-61.2789 81.0913-60.863 82.0656-60.4472 82.9151-59.8769 83.6399-59.1521 84.3647-58.4273 84.935-57.5778 85.3508-56.6035 85.7667-55.6292 85.9746-54.5955 85.9746-53.5024L85.9746 2.24561C85.9746 3.36247 85.7667 4.4021 85.3508 5.3645 84.935 6.3269 84.3647 7.17049 83.6399 7.89526 82.9151 8.62004 82.0656 9.19035 81.0913 9.6062 80.117 10.0221 79.0833 10.23 77.9902 10.23L22.2422 10.23C21.1253 10.23 20.0857 10.0221 19.1233 9.6062 18.1609 9.19035 17.3173 8.62004 16.5925 7.89526 15.8678 7.17049 15.2974 6.3269 14.8816 5.3645 14.4657 4.4021 14.2578 3.36247 14.2578 2.24561Z" fill="#636363" transform="translate(2581.13 1287)"/><path d="M77.9902 7.66357 22.2422 7.66357C21.4818 7.66357 20.7748 7.52099 20.1213 7.23584 19.4679 6.95068 18.8975 6.56453 18.4104 6.07739 17.9233 5.59025 17.5371 5.01994 17.252 4.36645 16.9668 3.71297 16.8242 3.00602 16.8242 2.24561L16.8242-53.5024C16.8242-54.2391 16.9668-54.9401 17.252-55.6055 17.5371-56.2708 17.9233-56.8471 18.4104-57.3342 18.8975-57.8214 19.4679-58.2075 20.1213-58.4927 20.7748-58.7778 21.4818-58.9204 22.2422-58.9204L77.9902-58.9204C78.7269-58.9204 79.4279-58.7778 80.0933-58.4927 80.7586-58.2075 81.3349-57.8214 81.822-57.3342 82.3092-56.8471 82.6953-56.2708 82.9805-55.6055 83.2656-54.9401 83.4082-54.2391 83.4082-53.5024L83.4082 2.24561C83.4082 3.00602 83.2656 3.71297 82.9805 4.36645 82.6953 5.01994 82.3092 5.59025 81.822 6.07739 81.3349 6.56453 80.7586 6.95068 80.0933 7.23584 79.4279 7.52099 78.7269 7.66357 77.9902 7.66357Z" transform="translate(2581.13 1287)"/><path d="M43.0586-7.69922C42.0368-7.69922 41.1338-8.06754 40.3496-8.8042L25.6284-23.2402C24.868-24.0006 24.4878-24.8918 24.4878-25.9136 24.4878-26.4364 24.5888-26.9294 24.7908-27.3928 24.9928-27.8562 25.272-28.2542 25.6284-28.5869 25.9849-28.9196 26.3948-29.1869 26.8582-29.3889 27.3215-29.5909 27.8146-29.6919 28.3374-29.6919 28.8364-29.6919 29.3236-29.5968 29.7988-29.4067 30.2741-29.2166 30.6899-28.9434 31.0464-28.5869L43.0586-16.7886 69.186-42.4526C69.5425-42.8091 69.9583-43.0824 70.4336-43.2725 70.9088-43.4626 71.396-43.5576 71.895-43.5576 72.4178-43.5576 72.9109-43.4566 73.3743-43.2546 73.8376-43.0526 74.2416-42.7853 74.5862-42.4526 74.9307-42.1199 75.204-41.7219 75.406-41.2585 75.608-40.7952 75.709-40.3021 75.709-39.7793 75.709-38.7575 75.3407-37.8783 74.604-37.1416L45.7676-8.8042C45.4111-8.44775 44.9953-8.17448 44.52-7.98437 44.0448-7.79427 43.5576-7.69922 43.0586-7.69922Z" fill="#F4F4F4" transform="translate(2581.13 1287)"/></g><g clip-path="url(#clip7)"><text fill="#FFFFFF" font-family="Arial,Arial_MSFontService,sans-serif" font-weight="400" font-size="73" transform="matrix(1 0 0 1 2702.2 1287)">221</text></g><g clip-path="url(#clip8)"><text fill="#FFFFFF" font-family="Arial,Arial_MSFontService,sans-serif" font-weight="400" font-size="73" transform="matrix(1 0 0 1 2744.01 886)">49</text></g><g clip-path="url(#clip9)"><text fill="#595959" font-family="Arial,Arial_MSFontService,sans-serif" font-weight="400" font-size="55" transform="matrix(1 0 0 1 858.987 1276)">House</text></g><g clip-path="url(#clip10)"><text fill="#595959" font-family="Arial,Arial_MSFontService,sans-serif" font-weight="400" font-size="55" transform="matrix(1 0 0 1 843.632 882)">Senate</text></g><g clip-path="url(#clip11)"><rect x="1548" y="1542" width="28.0002" height="27.9999" fill="#4472C4"/></g><g clip-path="url(#clip12)"><text fill="#595959" font-family="Arial,Arial_MSFontService,sans-serif" font-weight="400" font-size="55" transform="matrix(1 0 0 1 1587.99 1574)">Democrats</text></g><g clip-path="url(#clip13)"><rect x="1915" y="1542" width="26.9998" height="27.9999" fill="#EE6464"/></g><g clip-path="url(#clip14)"><text fill="#595959" font-family="Arial,Arial_MSFontService,sans-serif" font-weight="400" font-size="55" transform="matrix(1 0 0 1 1954.49 1574)">Republicans</text></g></g></svg>